<?xml version="1.0" encoding="iso-8859-1"?>
<!-- Uploaded to: SVG Repo, www.svgrepo.com, Generator: SVG Repo Mixer Tools -->
<svg fill="#000000" height="800px" width="800px" version="1.1" id="Layer_1" xmlns="http://www.w3.org/2000/svg" xmlns:xlink="http://www.w3.org/1999/xlink" 
	 viewBox="0 0 512 512" xml:space="preserve">
<g>
	<g>
		<path d="M508.498,107.081c-0.036-0.125-0.077-0.249-0.117-0.372c-10.847-36.363-44.861-61.727-82.865-61.727h-78.549h-52.289
			h-54.304c-42.942,0-77.877,34.941-77.877,77.888v53.44v91.819h-47.584H56.661H10.667C4.777,268.128,0,272.903,0,278.795
			s4.777,10.667,10.667,10.667h35.775c2.47,29.955,15.313,57.778,36.802,79.257c21.794,21.783,50.091,34.689,80.5,36.902v50.732
			c0,5.891,4.777,10.667,10.667,10.667h60.757c5.89,0,10.667-4.776,10.667-10.667c0-5.891-4.776-10.667-10.667-10.667h-50.091
			v-40.258c30.816-2.735,59.421-16.045,81.548-38.183c24.968-24.969,38.719-58.16,38.719-93.462V155.893h41.622h154.367
			c5.89,0,10.667-4.775,10.667-10.667v-13.749C512,123.152,510.82,114.936,508.498,107.081z M284.011,273.781
			c0,29.603-11.532,57.439-32.473,78.38c-20.926,20.938-48.76,32.468-78.375,32.468c-28.259,0-54.836-11.009-74.837-31
			c-17.453-17.444-28.061-39.921-30.469-64.167h36.597c2.605,35.642,32.415,63.851,68.71,63.851
			c19.083,0,37.019-7.428,50.511-20.919c13.486-13.499,20.912-31.435,20.912-50.505c0-5.891-4.776-10.667-10.667-10.667
			s-10.667,4.775-10.667,10.667c0,13.375-5.211,25.956-14.668,35.422c-9.459,9.459-22.039,14.668-35.423,14.668
			c-24.526,0-44.778-18.654-47.315-42.517h47.315c5.89,0,10.667-4.775,10.667-10.667V176.308v-53.44
			c0-31.184,25.365-56.555,56.544-56.555h43.637V273.781z M336.3,110.08v24.48h-30.956V66.315H336.3V110.08z M357.632,66.315h67.883
			c23.68,0,45.296,13.073,56.692,33.099H357.632V66.315z M490.667,134.56L490.667,134.56H357.632v-13.813h132.145
			c0.585,3.523,0.89,7.11,0.89,10.731V134.56z"/>
	</g>
</g>
<g>
	<g>
		<path d="M233.92,93.493c-5.89,0-10.667,4.775-10.667,10.667v16.075c0,5.891,4.777,10.667,10.667,10.667
			s10.667-4.776,10.667-10.667V104.16C244.587,98.269,239.81,93.493,233.92,93.493z"/>
	</g>
</g>
<g>
	<g>
		<path d="M233.92,236.089c-5.89,0-10.667,4.775-10.667,10.667v2.222c0,5.891,4.777,10.667,10.667,10.667
			s10.667-4.775,10.667-10.667v-2.222C244.587,240.865,239.81,236.089,233.92,236.089z"/>
	</g>
</g>
</svg>